<?xml version="1.0" standalone="no"?>
<!DOCTYPE svg PUBLIC "-//W3C//DTD SVG 20010904//EN"
 "http://www.w3.org/TR/2001/REC-SVG-20010904/DTD/svg10.dtd">
<svg version="1.0" xmlns="http://www.w3.org/2000/svg"
 width="700.000000pt" height="700.000000pt" viewBox="0 0 700.000000 700.000000"
 preserveAspectRatio="xMidYMid meet">
<metadata>
Created by potrace 1.11, written by Peter Selinger 2001-2013
</metadata>
<g transform="translate(0.000000,700.000000) scale(0.100000,-0.100000)"
fill="#000000" stroke="none">
<path d="M3110 6505 c-481 -69 -713 -140 -1080 -331 -263 -137 -477 -299 -720
-543 -272 -273 -430 -490 -580 -796 -128 -261 -207 -482 -231 -647 l-12 -82
32 -27 c47 -39 120 -58 266 -70 258 -22 410 3 600 96 176 87 216 122 600 529
178 189 301 301 416 378 111 74 307 171 421 209 120 39 401 96 550 111 115 12
121 11 290 -21 165 -31 299 -71 418 -123 30 -14 89 -35 130 -47 117 -35 288
-122 376 -192 133 -106 354 -334 423 -437 124 -186 236 -448 265 -621 26 -151
38 -360 34 -586 -3 -202 -5 -223 -25 -260 -11 -22 -28 -65 -37 -95 -25 -83
-163 -371 -238 -495 -122 -202 -280 -373 -469 -507 -198 -142 -382 -212 -779
-297 -186 -40 -385 -50 -595 -31 -126 12 -193 28 -291 68 -38 16 -86 32 -106
36 -54 10 -142 52 -223 106 -38 26 -90 57 -115 70 -63 32 -165 116 -304 250
-130 126 -195 216 -306 425 -35 66 -97 173 -138 238 -61 97 -90 131 -156 187
-90 76 -125 109 -174 163 -35 40 -88 70 -139 81 -27 6 -37 2 -71 -29 -22 -19
-47 -51 -57 -71 -16 -34 -15 -38 14 -132 16 -53 29 -98 27 -100 -2 -1 -32 41
-68 95 -97 149 -114 173 -168 243 -98 125 -68 112 -249 108 -217 -4 -222 -9
-201 -213 64 -642 382 -1306 850 -1775 458 -459 1058 -768 1707 -877 189 -32
774 -18 998 23 436 80 888 275 1222 526 232 175 411 341 549 513 290 361 430
615 569 1040 91 273 106 362 115 640 10 283 -3 707 -24 820 -57 318 -216 729
-393 1020 -162 265 -440 571 -733 808 -375 303 -901 535 -1360 602 -363 52
-569 57 -830 20z"/>
</g>
</svg>
