<?xml version="1.0" standalone="no"?>
<!DOCTYPE svg PUBLIC "-//W3C//DTD SVG 20010904//EN"
 "http://www.w3.org/TR/2001/REC-SVG-20010904/DTD/svg10.dtd">
<svg version="1.0" xmlns="http://www.w3.org/2000/svg"
 width="1280.000000pt" height="1280.000000pt" viewBox="0 0 1280.000000 1280.000000"
 preserveAspectRatio="xMidYMid meet">
<g transform="translate(0.000000,1280.000000) scale(0.100000,-0.100000)"
fill="#000000" stroke="none">
<path d="M6025 11938 c-322 -32 -788 -104 -1027 -159 -404 -93 -724 -207
-1103 -394 -348 -171 -606 -327 -878 -531 -607 -454 -1166 -1079 -1532 -1714
-299 -518 -585 -1290 -585 -1579 0 -60 3 -70 27 -93 38 -35 137 -83 209 -102
84 -21 211 -34 440 -46 336 -18 519 5 759 95 382 143 592 299 998 745 565 619
794 837 1090 1031 179 118 526 289 721 355 229 79 906 209 1145 220 130 6 142
5 261 -24 69 -17 208 -45 310 -62 154 -25 197 -36 255 -65 39 -19 97 -39 129
-46 59 -11 117 -33 189 -70 78 -40 165 -72 254 -95 142 -35 425 -163 573 -258
229 -148 791 -697 857 -836 14 -30 42 -73 63 -95 93 -103 318 -553 350 -701 5
-27 26 -80 45 -119 76 -153 129 -590 141 -1165 6 -276 -6 -538 -27 -600 -7
-19 -23 -51 -35 -70 -13 -19 -28 -57 -35 -85 -27 -119 -57 -192 -199 -487
-157 -326 -237 -476 -347 -642 -196 -296 -458 -563 -780 -794 -348 -249 -591
-345 -1303 -511 -277 -65 -363 -78 -600 -91 -249 -14 -620 2 -821 35 -99 17
-262 71 -361 121 -48 24 -92 38 -145 44 -62 8 -86 17 -127 45 -28 19 -60 35
-71 35 -37 0 -129 51 -235 130 -94 70 -197 130 -225 130 -15 0 -146 101 -259
199 -296 258 -529 497 -546 561 -5 19 -30 60 -55 90 -61 73 -103 146 -244 419
-125 241 -169 315 -219 372 -16 19 -44 65 -62 103 -26 54 -56 92 -144 181
-116 117 -226 205 -256 205 -21 0 -62 46 -89 99 -55 105 -231 221 -338 221
-51 0 -55 -2 -117 -62 -35 -35 -76 -87 -91 -117 -24 -48 -26 -62 -21 -110 4
-31 29 -111 56 -179 28 -67 50 -132 50 -142 0 -48 -28 -12 -120 151 -23 42
-66 104 -96 138 -31 36 -58 78 -64 101 -7 27 -36 66 -90 125 -85 91 -120 139
-164 220 -15 28 -37 57 -49 64 -33 21 -261 33 -429 23 -265 -16 -289 -51 -258
-385 54 -590 245 -1245 531 -1817 176 -352 296 -552 499 -830 718 -986 1790
-1726 3008 -2074 347 -100 679 -161 956 -178 309 -19 1058 11 1412 56 207 27
654 142 904 233 69 25 179 64 245 88 146 53 237 95 465 215 416 219 555 309
874 561 481 382 689 596 1057 1085 314 418 495 741 689 1224 139 348 281 819
324 1075 36 213 41 333 41 930 0 847 -18 1031 -150 1500 -161 572 -420 1149
-715 1590 -358 534 -896 1086 -1460 1495 -291 211 -513 342 -872 512 -279 132
-340 155 -718 269 -319 97 -377 111 -590 143 -606 93 -998 122 -1275 94z"/>
</g>
</svg>
